<?xml version="1.0" encoding="UTF-8" standalone="no"?>
<!-- Created with Inkscape (http://www.inkscape.org/) -->

<svg
   width="280.46841mm"
   height="34.685879mm"
   viewBox="0 0 280.46841 34.685879"
   version="1.1"
   id="svg5"
   xml:space="preserve"
   inkscape:version="1.2 (dc2aedaf03, 2022-05-15)"
   sodipodi:docname="artverket.svg"
   xmlns:inkscape="http://www.inkscape.org/namespaces/inkscape"
   xmlns:sodipodi="http://sodipodi.sourceforge.net/DTD/sodipodi-0.dtd"
   xmlns="http://www.w3.org/2000/svg"
   xmlns:svg="http://www.w3.org/2000/svg"><sodipodi:namedview
     id="namedview7"
     pagecolor="#505050"
     bordercolor="#eeeeee"
     borderopacity="1"
     inkscape:showpageshadow="0"
     inkscape:pageopacity="0"
     inkscape:pagecheckerboard="0"
     inkscape:deskcolor="#505050"
     inkscape:document-units="mm"
     showgrid="false"
     inkscape:zoom="0.40088384"
     inkscape:cx="738.3685"
     inkscape:cy="281.87717"
     inkscape:window-width="1920"
     inkscape:window-height="1017"
     inkscape:window-x="-8"
     inkscape:window-y="-8"
     inkscape:window-maximized="1"
     inkscape:current-layer="layer1" /><defs
     id="defs2" /><g
     inkscape:label="Layer 1"
     inkscape:groupmode="layer"
     id="layer1"
     transform="translate(30.014208,-130.80036)"><path
       style="fill:#000000;stroke-width:0.264583"
       d="m -29.875937,164.89082 c 0.188257,-0.81051 6.22181,-33.67887 6.22181,-33.8939 0,-0.0942 3.748201,-0.1712 8.329334,-0.1712 h 8.329335 l 0.137591,0.59531 c 0.07568,0.32742 1.632556,7.91766 3.459732,16.86719 1.827178,8.94953 3.3828964,16.48023 3.4571544,16.7349 0.1259337,0.43188 -0.2931716,0.46302 -6.2328164,0.46302 -3.502308,0 -6.375302,-0.0298 -6.384436,-0.0661 -0.0091,-0.0364 -0.157961,-0.95911 -0.330729,-2.05052 l -0.314124,-1.98438 -2.421249,-0.0757 -2.42125,-0.0757 -0.17244,1.39864 c -0.09484,0.76926 -0.23513,1.72607 -0.311753,2.12625 l -0.139311,0.72761 h -5.672561 -5.672558 z m 15.482226,-11.65314 c 0,-0.66254 -1.097489,-8.25181 -1.209495,-8.36382 -0.06238,-0.0624 -0.116157,0.0553 -0.119501,0.26141 -0.0033,0.20615 -0.238734,1.92264 -0.523087,3.81441 -0.731247,4.86491 -0.764775,4.63021 0.661458,4.63021 0.797404,0 1.190625,-0.11302 1.190625,-0.34221 z M 3.8625397,148.14327 V 130.8004 l 11.8401043,0.0788 c 11.71947,0.078 11.853582,0.085 13.16302,0.6883 1.601753,0.73796 2.651035,1.69493 3.351038,3.05623 0.462862,0.90013 0.51439,1.4463 0.43879,4.65081 -0.08153,3.45568 -0.121068,3.68435 -0.8193,4.73824 -0.434295,0.65551 -1.269405,1.4028 -2.046709,1.83148 -0.722188,0.39829 -1.314786,0.78954 -1.316881,0.86944 -0.0021,0.0799 0.420785,0.29883 0.939739,0.48648 1.039326,0.37583 2.601637,1.6419 3.101454,2.51338 0.218884,0.38164 0.36468,2.82578 0.459475,7.70277 0.07637,3.92907 0.237937,7.35211 0.359037,7.60678 0.206611,0.43448 -0.186637,0.46302 -6.380242,0.46302 h -6.60042 l -0.307051,-0.67391 c -0.202954,-0.44543 -0.307055,-2.62521 -0.307055,-6.42938 0,-4.12369 -0.09002,-5.84548 -0.3175,-6.07296 -0.174625,-0.17463 -0.769937,-0.3175 -1.322916,-0.3175 h -1.005417 v 6.74687 6.74688 H 10.477123 3.8625397 Z M 19.40681,143.99881 c 0.449234,-0.37123 0.460727,-5.79351 0.01323,-6.24101 -0.174625,-0.17462 -0.769937,-0.3175 -1.322916,-0.3175 h -1.005418 v 3.60132 3.60132 l 0.992188,-0.18541 c 0.545703,-0.10198 1.141015,-0.3084 1.322916,-0.45872 z m 23.614063,8.25816 V 139.0278 h -2.910417 -2.910417 v -4.10104 -4.10104 h 12.435417 12.435417 v 4.10104 4.10104 h -2.910417 -2.910417 v 13.22917 13.22917 h -6.614583 -6.614583 z m 30.427083,13.07647 c 0,-0.19521 -7.392003,-33.42583 -7.573092,-34.0447 -0.126624,-0.43275 0.323779,-0.46302 6.888763,-0.46302 h 7.024248 l 0.133104,0.59531 c 0.07321,0.32742 0.673643,4.70297 1.334299,9.72344 1.120273,8.51317 1.379572,10.19729 1.432206,9.30197 0.04113,-0.69957 2.413341,-18.44238 2.543699,-19.02541 l 0.133104,-0.59531 h 6.344959 c 4.506056,0 6.34496,0.0859 6.34496,0.29627 0,0.16296 -1.547813,7.90593 -3.439583,17.20663 -1.891771,9.30069 -3.439584,16.96596 -3.439584,17.03393 0,0.068 -3.988593,0.12359 -8.863541,0.12359 -4.874948,0 -8.863542,-0.0687 -8.863542,-0.1527 z m 28.575004,-17.17751 v -17.33021 h 11.37708 11.37709 v 4.10104 4.10104 h -4.8948 -4.89479 v 2.11667 2.11667 h 3.96875 3.96875 v 4.36562 4.36563 h -3.96875 -3.96875 l -2.6e-4,2.57968 -2.7e-4,2.57969 5.02738,-0.0772 5.02738,-0.0772 v 4.2444 4.2444 h -11.50938 -11.50938 v -17.33021 z m 27.78125,-0.0127 v -17.34287 l 11.8401,0.0788 c 11.71948,0.078 11.85358,0.085 13.16302,0.6883 1.60177,0.73796 2.65105,1.69494 3.35103,3.05624 0.46286,0.90012 0.51441,1.44629 0.43881,4.6508 -0.0815,3.45568 -0.12107,3.68435 -0.81931,4.73824 -0.43428,0.65551 -1.26941,1.4028 -2.04671,1.83148 -0.72218,0.39829 -1.31479,0.78954 -1.31688,0.86944 -0.003,0.0799 0.42079,0.29883 0.93975,0.48648 1.03931,0.37583 2.60162,1.6419 3.10144,2.51338 0.21889,0.38164 0.36468,2.82578 0.45948,7.70277 0.0764,3.92907 0.23794,7.35211 0.35904,7.60678 0.20661,0.43448 -0.18664,0.46302 -6.38024,0.46302 h -6.60043 l -0.30705,-0.67391 c -0.20294,-0.44543 -0.30705,-2.62521 -0.30705,-6.42938 0,-4.12369 -0.09,-5.84548 -0.3175,-6.07296 -0.17463,-0.17463 -0.76994,-0.3175 -1.32292,-0.3175 h -1.00541 v 6.74687 6.74688 h -6.61459 -6.61458 z m 15.54427,-4.14446 c 0.44924,-0.37123 0.46072,-5.79351 0.0132,-6.24101 -0.17463,-0.17462 -0.76994,-0.3175 -1.32292,-0.3175 h -1.00541 v 3.60132 3.60132 l 0.99218,-0.18541 c 0.54571,-0.10198 1.14102,-0.3084 1.32292,-0.45872 z m 18.3224,4.15711 v -17.33021 h 6.60921 6.60921 l 0.0715,5.42036 0.0715,5.42036 2.10246,-5.42036 2.10246,-5.42036 h 6.59096 c 5.16808,0 6.56193,0.0714 6.45647,0.33073 -0.0739,0.1819 -1.45593,3.50942 -3.07102,7.39449 -1.6151,3.88506 -2.93653,7.23234 -2.93653,7.4384 0,0.20605 1.36922,4.60564 3.0427,9.77685 1.67349,5.17122 3.04271,9.4737 3.04271,9.56108 0,0.0874 -3.07459,0.15887 -6.83244,0.15887 h -6.83247 l -1.83263,-6.15157 -1.83267,-6.15156 -0.071,6.15156 -0.071,6.15157 h -6.60969 -6.60971 z m 34.66041,0 v -17.33021 h 11.37709 11.37708 v 4.10104 4.10104 h -4.89479 -4.89479 v 2.11667 2.11667 h 3.96875 3.96875 v 4.36562 4.36563 h -3.96875 -3.96875 v 2.57968 2.57969 l 5.02737,-0.0772 5.02738,-0.0772 v 4.2444 4.2444 H 209.84125 198.33188 V 148.1559 Z m 33.07292,4.10104 v -13.22917 h -2.91042 -2.91041 v -4.10104 -4.10104 h 12.43541 12.43542 v 4.10104 4.10104 h -2.91042 -2.91041 v 13.22917 13.22917 h -6.61459 -6.61458 z"
       id="path302" /></g></svg>
